<svg xmlns="http://www.w3.org/2000/svg" width="30" height="30" fill="none"><path fill="#fff" fill-rule="evenodd" d="M3.69 15C3.69 8.754 8.754 3.69 15 3.69S26.31 8.754 26.31 15 21.245 26.31 15 26.31 3.69 21.245 3.69 15ZM15 2.5C8.096 2.5 2.5 8.096 2.5 15S8.096 27.5 15 27.5 27.5 21.904 27.5 15 21.904 2.5 15 2.5Zm-4.977 6.6a.44.44 0 0 1 .238.389v11.023c0 .243-.201.44-.45.44a.445.445 0 0 1-.449-.44v-10.2L7.365 11.62a.455.455 0 0 1-.623-.122.436.436 0 0 1 .125-.612l2.695-1.763a.456.456 0 0 1 .461-.022Zm2.933 2.814c0-1.06.968-1.985 2.246-1.985s2.246.924 2.246 1.985c0 1.06-.968 1.984-2.246 1.984s-2.246-.924-2.246-1.984Zm2.246-2.866c-1.699 0-3.145 1.247-3.145 2.866 0 1.047.606 1.94 1.495 2.438-1.153.601-1.944 1.74-1.944 3.073 0 1.976 1.74 3.527 3.819 3.527 2.079 0 3.818-1.55 3.818-3.527 0-1.428-.907-2.633-2.195-3.193.78-.515 1.297-1.35 1.297-2.318 0-1.619-1.446-2.866-3.145-2.866Zm-2.695 8.377c0-1.433 1.277-2.646 2.92-2.646 1.642 0 2.92 1.213 2.92 2.646 0 1.433-1.278 2.645-2.92 2.645-1.643 0-2.92-1.212-2.92-2.645Zm8.086-3.417a.334.334 0 0 0-.337.33c0 .183.15.331.337.331h1.46v1.433c0 .183.15.331.337.331a.334.334 0 0 0 .337-.33v-1.434h1.46a.334.334 0 0 0 .337-.33c0-.183-.151-.331-.337-.331h-1.46v-1.433c0-.183-.151-.33-.337-.33a.334.334 0 0 0-.337.33v1.433h-1.46Z" clip-rule="evenodd"/></svg>