<svg width="18" height="19" viewBox="0 0 18 19" fill="none" xmlns="http://www.w3.org/2000/svg">
<path d="M8.81437 6.63906H3.0617C2.68028 6.63906 2.31447 6.79058 2.04476 7.06029C1.77506 7.33 1.62354 7.6958 1.62354 8.07723V10.9536C1.62354 11.335 1.77506 11.7008 2.04476 11.9705C2.31447 12.2402 2.68028 12.3917 3.0617 12.3917H3.78079V15.2681C3.78079 15.4588 3.85655 15.6417 3.9914 15.7765C4.12625 15.9114 4.30916 15.9871 4.49987 15.9871H5.93804C6.12875 15.9871 6.31165 15.9114 6.4465 15.7765C6.58136 15.6417 6.65712 15.4588 6.65712 15.2681V12.3917H8.81437L12.4098 15.2681V3.76273L8.81437 6.63906ZM10.9716 12.1041L9.53345 10.9536H3.0617V8.07723H9.53345L10.9716 6.92669V12.1041ZM15.6457 9.51539C15.6457 10.745 14.9553 11.8596 13.848 12.3917V6.63906C14.9481 7.17837 15.6457 8.29295 15.6457 9.51539Z" fill="#707487"/>
</svg>
