<svg width="24" height="24" viewBox="0 0 24 24" fill="none" xmlns="http://www.w3.org/2000/svg">
<path d="M12.1908 8.87633H6.43817C6.05674 8.87633 5.69094 9.02785 5.42123 9.29756C5.15152 9.56727 5 9.93307 5 10.3145V13.1908C5 13.5723 5.15152 13.9381 5.42123 14.2078C5.69094 14.4775 6.05674 14.629 6.43817 14.629H7.15725V17.5053C7.15725 17.696 7.23301 17.8789 7.36786 18.0138C7.50272 18.1487 7.68562 18.2244 7.87633 18.2244H9.3145C9.50521 18.2244 9.68811 18.1487 9.82297 18.0138C9.95782 17.8789 10.0336 17.696 10.0336 17.5053V14.629H12.1908L15.7863 17.5053V6L12.1908 8.87633ZM14.3481 14.3414L12.9099 13.1908H6.43817V10.3145H12.9099L14.3481 9.16397V14.3414ZM19.0221 11.7527C19.0221 12.9823 18.3318 14.0969 17.2244 14.629V8.87633C18.3246 9.41565 19.0221 10.5302 19.0221 11.7527Z" fill="#707487"/>
</svg>
