<svg width="24" height="24" viewBox="0 0 24 24" fill="none" xmlns="http://www.w3.org/2000/svg">
<path d="M12.1908 6C8.23588 6 5 8.57432 5 11.7527C5.03595 13.2987 5.76223 14.7512 6.97748 15.7076C6.97748 16.1391 6.67546 17.268 5 18.9435C6.70423 18.8644 8.33655 18.2244 9.65247 17.1458C10.4722 17.3831 11.3351 17.5053 12.1908 17.5053C16.1458 17.5053 19.3817 14.931 19.3817 11.7527C19.3817 8.57432 16.1458 6 12.1908 6ZM12.1908 16.0672C9.01249 16.0672 6.43817 14.1328 6.43817 11.7527C6.43817 9.3725 9.01249 7.43817 12.1908 7.43817C15.3692 7.43817 17.9435 9.3725 17.9435 11.7527C17.9435 14.1328 15.3692 16.0672 12.1908 16.0672ZM15.7863 12.4718V11.0336H14.3481V12.4718H15.7863ZM12.9099 12.4718V11.0336H11.4718V12.4718H12.9099ZM10.0336 12.4718V11.0336H8.59542V12.4718H10.0336Z" fill="#707487"/>
</svg>
