<svg width="18" height="19" viewBox="0 0 18 19" fill="none" xmlns="http://www.w3.org/2000/svg">
<path d="M8.81388 3.06372C4.85892 3.06372 1.62305 5.63804 1.62305 8.81639C1.659 10.3624 2.38528 11.815 3.60053 12.7713C3.60053 13.2028 3.29851 14.3318 1.62305 16.0072C3.32727 15.9281 4.95959 15.2881 6.27552 14.2095C7.09527 14.4468 7.95817 14.5691 8.81388 14.5691C12.7688 14.5691 16.0047 11.9947 16.0047 8.81639C16.0047 5.63804 12.7688 3.06372 8.81388 3.06372ZM8.81388 13.1309C5.63553 13.1309 3.06121 11.1966 3.06121 8.81639C3.06121 6.43622 5.63553 4.50189 8.81388 4.50189C11.9922 4.50189 14.5665 6.43622 14.5665 8.81639C14.5665 11.1966 11.9922 13.1309 8.81388 13.1309ZM12.4093 9.53547V8.0973H10.9711V9.53547H12.4093ZM9.53296 9.53547V8.0973H8.0948V9.53547H9.53296ZM6.65663 9.53547V8.0973H5.21846V9.53547H6.65663Z" fill="#707487"/>
</svg>
