<svg width="24" height="24" viewBox="0 0 24 24" fill="none" xmlns="http://www.w3.org/2000/svg">
<path d="M7.54545 12.5L8.81818 9.9V9.25H6.90909V9.9H8.18182L6.90909 12.5H7.54545ZM10.0909 12.5L11.3636 9.9V9.25H9.45455V9.9H10.7273L9.45455 12.5H10.0909ZM12.6364 12.5L13.9091 9.9V9.25H12V9.9H13.2727L12 12.5H12.6364ZM17.7273 6C17.0273 6 16.4545 6.585 16.4545 7.3C16.4545 7.755 16.7091 8.21 17.0909 8.405V15.75H15.1818V14.45C15.5636 14.45 15.8182 14.19 15.8182 13.8V7.95C15.8182 7.56 15.5636 7.3 15.1818 7.3H12.7636C12.2545 6.52 11.3636 6 10.4091 6C9.45455 6 8.56364 6.52 8.05455 7.3H5.63636C5.25455 7.3 5 7.56 5 7.95V13.8C5 14.19 5.25455 14.45 5.63636 14.45V19H15.1818V17.05H17.0909C17.7909 17.05 18.3636 16.465 18.3636 15.75V8.405C18.7455 8.21 19 7.755 19 7.3C19 6.585 18.4273 6 17.7273 6ZM6.27273 8.6H14.5455V13.15H6.27273V8.6ZM13.9091 17.7H6.90909V14.45H13.9091V17.7ZM12.6364 17.05H8.18182V15.75H12.6364V17.05Z" fill="#707487"/>
</svg>
