<svg width="18" height="19" viewBox="0 0 18 19" fill="none" xmlns="http://www.w3.org/2000/svg">
<g clip-path="url(#clip0_4_1794)">
<path d="M4.21232 9.51553L5.65051 6.63915V5.92006H3.49322V6.63915H4.93141L3.49322 9.51553H4.21232ZM7.0887 9.51553L8.52688 6.63915V5.92006H6.3696V6.63915H7.80779L6.3696 9.51553H7.0887ZM9.96507 9.51553L11.4033 6.63915V5.92006H9.24598V6.63915H10.6842L9.24598 9.51553H9.96507ZM15.7178 2.32458C14.9268 2.32458 14.2796 2.97177 14.2796 3.76277C14.2796 4.26614 14.5673 4.76951 14.9987 4.98524V13.111H12.8415V11.6728C13.2729 11.6728 13.5605 11.3852 13.5605 10.9537V4.48187C13.5605 4.05041 13.2729 3.76277 12.8415 3.76277H10.1089C9.53362 2.89986 8.52688 2.32458 7.44824 2.32458C6.3696 2.32458 5.36287 2.89986 4.78759 3.76277H2.05503C1.62358 3.76277 1.33594 4.05041 1.33594 4.48187V10.9537C1.33594 11.3852 1.62358 11.6728 2.05503 11.6728V16.7065H12.8415V14.5492H14.9987C15.7897 14.5492 16.4369 13.902 16.4369 13.111V4.98524C16.8684 4.76951 17.156 4.26614 17.156 3.76277C17.156 2.97177 16.5088 2.32458 15.7178 2.32458ZM2.77413 5.20096H12.1224V10.2346H2.77413V5.20096ZM11.4033 15.2683H3.49322V11.6728H11.4033V15.2683ZM9.96507 14.5492H4.93141V13.111H9.96507V14.5492Z" fill="#707487"/>
</g>
<defs>
<clipPath id="clip0_4_1794">
<rect width="17.2583" height="17.2583" fill="white" transform="translate(0.616699 0.886475)"/>
</clipPath>
</defs>
</svg>
