<svg width="15" height="13" viewBox="0 0 15 13" fill="none" xmlns="http://www.w3.org/2000/svg">
<path d="M0.773771 0.0637207H13.7173C13.908 0.0637207 14.0909 0.139481 14.2257 0.274335C14.3606 0.40919 14.4364 0.592091 14.4364 0.782804V12.2881C14.4364 12.4789 14.3606 12.6618 14.2257 12.7966C14.0909 12.9315 13.908 13.0072 13.7173 13.0072H0.773771C0.583058 13.0072 0.400156 12.9315 0.265302 12.7966C0.130448 12.6618 0.0546875 12.4789 0.0546875 12.2881V0.782804C0.0546875 0.592091 0.130448 0.40919 0.265302 0.274335C0.400156 0.139481 0.583058 0.0637207 0.773771 0.0637207ZM6.52644 4.01868V9.05226H7.96461V4.01868H6.52644ZM6.3215 4.01868H4.80136L3.72489 6.97627L2.64842 4.01868H1.12828L3.00581 9.02638H4.44397L6.3215 4.01868ZM10.1219 7.6141H11.2005C11.6773 7.6141 12.1345 7.4247 12.4717 7.08756C12.8088 6.75042 12.9982 6.29317 12.9982 5.81639C12.9982 5.33961 12.8088 4.88235 12.4717 4.54522C12.1345 4.20808 11.6773 4.01868 11.2005 4.01868H8.68369V9.05226H10.1219V7.6141ZM10.1219 6.17593V5.45685H11.2005C11.2958 5.45685 11.3873 5.49473 11.4547 5.56215C11.5221 5.62958 11.56 5.72103 11.56 5.81639C11.56 5.91174 11.5221 6.0032 11.4547 6.07062C11.3873 6.13805 11.2958 6.17593 11.2005 6.17593H10.1219Z" fill="#707487"/>
</svg>
