<svg width="24" height="24" viewBox="0 0 24 24" fill="none" xmlns="http://www.w3.org/2000/svg">
<path d="M5.71908 6H18.6626C18.8533 6 19.0362 6.07576 19.1711 6.21061C19.3059 6.34547 19.3817 6.52837 19.3817 6.71908V18.2244C19.3817 18.4151 19.3059 18.598 19.1711 18.7329C19.0362 18.8677 18.8533 18.9435 18.6626 18.9435H5.71908C5.52837 18.9435 5.34547 18.8677 5.21061 18.7329C5.07576 18.598 5 18.4151 5 18.2244V6.71908C5 6.52837 5.07576 6.34547 5.21061 6.21061C5.34547 6.07576 5.52837 6 5.71908 6ZM11.4718 9.95496V14.9885H12.9099V9.95496H11.4718ZM11.2668 9.95496H9.74667L8.6702 12.9125L7.59373 9.95496H6.07359L7.95112 14.9627H9.38929L11.2668 9.95496ZM15.0672 13.5504H16.1458C16.6226 13.5504 17.0798 13.361 17.417 13.0238C17.7541 12.6867 17.9435 12.2294 17.9435 11.7527C17.9435 11.2759 17.7541 10.8186 17.417 10.4815C17.0798 10.1444 16.6226 9.95496 16.1458 9.95496H13.629V14.9885H15.0672V13.5504ZM15.0672 12.1122V11.3931H16.1458C16.2411 11.3931 16.3326 11.431 16.4 11.4984C16.4675 11.5659 16.5053 11.6573 16.5053 11.7527C16.5053 11.848 16.4675 11.9395 16.4 12.0069C16.3326 12.0743 16.2411 12.1122 16.1458 12.1122H15.0672Z" fill="#707487"/>
</svg>
