<svg width="10" height="10" viewBox="0 0 10 10" fill="none" xmlns="http://www.w3.org/2000/svg">
<g clip-path="url(#clip0_298_55)">
<path d="M5.12671 0.292969C5.88376 0.292969 6.59686 0.481707 7.22169 0.814181C6.93073 1.00257 6.74286 1.18119 6.59372 1.43953C6.14524 1.24102 5.64879 1.13061 5.12671 1.13061C4.12474 1.13061 3.21767 1.53686 2.56127 2.19309C1.90504 2.84949 1.49878 3.75655 1.49878 4.75851C1.49878 5.76046 1.90504 6.66752 2.56127 7.32392C3.21767 7.98015 4.12474 8.3864 5.12671 8.3864C6.12867 8.3864 7.03574 7.98015 7.69214 7.32392C8.34837 6.66752 8.75464 5.76046 8.75464 4.75851C8.75464 4.46668 8.7201 4.18304 8.65503 3.91127C8.91616 3.76527 9.1138 3.49298 9.33743 3.26796C9.50245 3.73422 9.59228 4.2359 9.59228 4.75851C9.59228 5.99141 9.09234 7.10797 8.28418 7.91595C7.47619 8.72411 6.35962 9.22404 5.12671 9.22404C3.89379 9.22404 2.77722 8.72411 1.96906 7.91595C1.16107 7.10797 0.661133 5.99141 0.661133 4.75851C0.661133 3.5256 1.16107 2.40904 1.96906 1.60088C2.77722 0.7929 3.89379 0.292969 5.12671 0.292969Z" fill="#EB0100"/>
<path d="M4.68609 6.19218H3.06191C3.01551 6.19218 2.98184 6.18119 2.96091 6.15938C2.94015 6.1374 2.92969 6.10217 2.92969 6.05333V5.58636C2.92969 5.53752 2.94015 5.50211 2.96091 5.48031C2.98184 5.45833 3.01551 5.44751 3.06191 5.44751H3.47358V4.15879H3.13552C3.08895 4.15879 3.05528 4.14797 3.03435 4.12617C3.01359 4.10419 3.00313 4.06878 3.00313 4.01994V3.55315C3.00313 3.50413 3.01359 3.4689 3.03435 3.44692C3.05528 3.42511 3.08895 3.4143 3.13552 3.4143H4.20098C4.24755 3.4143 4.28122 3.42511 4.30215 3.44692C4.32291 3.4689 4.3332 3.50413 4.3332 3.55315V5.44751H4.68609C4.73249 5.44751 4.76615 5.45833 4.78691 5.48031C4.80784 5.50211 4.81831 5.53752 4.81831 5.58636V6.05333C4.81831 6.10217 4.80784 6.1374 4.78691 6.15938C4.76615 6.18119 4.73249 6.19218 4.68609 6.19218ZM7.85472 1.19531H8.27076C8.35553 1.19531 8.42478 1.26474 8.42478 1.34951V1.91416H8.98961C9.07438 1.91416 9.14364 1.98358 9.14364 2.06836V2.48439C9.14364 2.56916 9.07438 2.63859 8.98961 2.63859H8.42478V3.20323C8.42478 3.28818 8.35553 3.35743 8.27076 3.35743H7.85472C7.76995 3.35743 7.70052 3.28818 7.70052 3.20323V2.63859H7.1357C7.05092 2.63859 6.9815 2.56916 6.9815 2.48439V2.06836C6.9815 1.98358 7.05092 1.91416 7.1357 1.91416H7.70052V1.34951C7.70052 1.26474 7.76995 1.19531 7.85472 1.19531ZM7.31013 5.20435V5.57869C7.31013 5.67881 7.29234 5.77039 7.25693 5.85255C7.22152 5.93489 7.16064 6.00571 7.07499 6.06467C6.98935 6.12397 6.87352 6.16968 6.72787 6.20177C6.58221 6.23387 6.39905 6.24992 6.17857 6.24992C5.95808 6.24992 5.77422 6.23387 5.62752 6.20177C5.48047 6.16968 5.36412 6.12397 5.27847 6.06467C5.19265 6.00571 5.13195 5.93489 5.09654 5.85255C5.06113 5.77039 5.04333 5.67899 5.04333 5.57869V5.20435C5.04333 5.02434 5.08066 4.88531 5.15532 4.78763C5.22998 4.69012 5.32261 4.62959 5.43268 4.60639C5.35191 4.57028 5.29557 4.51638 5.26382 4.44434C5.2319 4.3723 5.21585 4.26223 5.21585 4.16455V3.94074C5.21585 3.8455 5.2319 3.76055 5.26382 3.68624C5.29539 3.61159 5.34842 3.54774 5.42151 3.49506C5.49512 3.44256 5.59455 3.40174 5.71927 3.37366C5.84417 3.3454 5.99855 3.33109 6.18223 3.33109C6.36591 3.33109 6.51976 3.3454 6.64344 3.37366C6.76694 3.40174 6.86515 3.44256 6.93736 3.49506C7.00941 3.54774 7.06104 3.61159 7.09157 3.68624C7.12209 3.76055 7.13744 3.84585 7.13744 3.94074V4.16455C7.13744 4.26188 7.12174 4.3723 7.08982 4.44434C7.0579 4.51638 7.00156 4.57028 6.92079 4.60639C7.03104 4.62959 7.12349 4.69012 7.19815 4.78763C7.27298 4.88531 7.31013 5.02451 7.31013 5.20435ZM5.92302 4.3402C5.92302 4.38015 5.93575 4.41538 5.96157 4.44242C5.98721 4.46946 6.07565 4.48289 6.17857 4.48289C6.28392 4.48289 6.37254 4.46911 6.39556 4.44242C6.41842 4.41573 6.43045 4.38137 6.43045 4.3402V4.12006C6.43045 4.08134 6.41859 4.04872 6.39556 4.02168C6.37219 3.99465 6.28392 3.98104 6.17857 3.98104C6.07565 3.98104 5.98721 3.99465 5.96157 4.02168C5.93575 4.04872 5.92302 4.08204 5.92302 4.12006V4.3402ZM5.83109 5.43199C5.83109 5.47228 5.85219 5.50752 5.89354 5.53421C5.93505 5.56107 6.04634 5.57485 6.17857 5.57485C6.31079 5.57485 6.42138 5.56107 6.46168 5.53421C6.5018 5.50752 6.52221 5.47316 6.52221 5.43199V5.20226C6.52221 5.16371 6.50197 5.13091 6.46168 5.10388C6.42121 5.07701 6.31079 5.06341 6.17857 5.06341C6.04634 5.06341 5.93505 5.07701 5.89354 5.10388C5.85185 5.13091 5.83109 5.16423 5.83109 5.20226V5.43199Z" fill="black"/>
</g>
<defs>
<clipPath id="clip0_298_55">
<rect width="8.93115" height="8.93107" fill="white" transform="translate(0.661133 0.292969)"/>
</clipPath>
</defs>
</svg>
