<svg width="34" height="34" viewBox="0 0 34 34" fill="none" xmlns="http://www.w3.org/2000/svg">
<g clip-path="url(#clip0_10_117)">
<path d="M16.9152 0.338867C19.7541 0.338867 22.4282 1.04664 24.7713 2.29341C23.6802 2.99987 22.9757 3.6697 22.4164 4.63847C20.7347 3.89407 18.873 3.48001 16.9152 3.48001C13.1579 3.48001 9.75638 5.00348 7.29489 7.46432C4.83404 9.92582 3.31057 13.3273 3.31057 17.0846C3.31057 20.842 4.83404 24.2434 7.29489 26.7049C9.75638 29.1658 13.1579 30.6893 16.9152 30.6893C20.6725 30.6893 24.074 29.1658 26.5355 26.7049C28.9963 24.2434 30.5198 20.842 30.5198 17.0846C30.5198 15.9903 30.3903 14.9266 30.1463 13.9075C31.1255 13.36 31.8667 12.3389 32.7053 11.4951C33.3241 13.2436 33.661 15.1249 33.661 17.0846C33.661 21.708 31.7862 25.8951 28.7556 28.9251C25.7257 31.9557 21.5386 33.8304 16.9152 33.8304C12.2918 33.8304 8.1047 31.9557 5.07411 28.9251C2.04417 25.8951 0.169434 21.708 0.169434 17.0846C0.169434 12.4612 2.04417 8.27413 5.07411 5.24354C8.1047 2.21361 12.2918 0.338867 16.9152 0.338867Z" fill="#EB0100"/>
<path d="M15.2608 22.4648H9.17015C8.99615 22.4648 8.8699 22.4236 8.79141 22.3418C8.71356 22.2594 8.67432 22.1273 8.67432 21.9441V20.193C8.67432 20.0099 8.71356 19.8771 8.79141 19.7953C8.8699 19.7129 8.99615 19.6723 9.17015 19.6723H10.7139V14.8396H9.44619C9.27154 14.8396 9.14529 14.799 9.0668 14.7173C8.98895 14.6349 8.94971 14.5021 8.94971 14.3189V12.5685C8.94971 12.3846 8.98895 12.2525 9.0668 12.1701C9.14529 12.0883 9.27154 12.0478 9.44619 12.0478H13.4416C13.6163 12.0478 13.7425 12.0883 13.821 12.1701C13.8989 12.2525 13.9375 12.3846 13.9375 12.5685V19.6723H15.2608C15.4348 19.6723 15.561 19.7129 15.6389 19.7953C15.7173 19.8771 15.7566 20.0099 15.7566 20.193V21.9441C15.7566 22.1273 15.7173 22.2594 15.6389 22.3418C15.561 22.4236 15.4348 22.4648 15.2608 22.4648ZM27.1431 3.72656H28.7032C29.0211 3.72656 29.2808 3.98691 29.2808 4.30481V6.42224H31.3988C31.7167 6.42224 31.9764 6.68258 31.9764 7.00049V8.56059C31.9764 8.8785 31.7167 9.13884 31.3988 9.13884H29.2808V11.2563C29.2808 11.5748 29.0211 11.8345 28.7032 11.8345H27.1431C26.8251 11.8345 26.5648 11.5748 26.5648 11.2563V9.13884H24.4467C24.1288 9.13884 23.8685 8.8785 23.8685 8.56059V7.00049C23.8685 6.68258 24.1288 6.42224 24.4467 6.42224H26.5648V4.30481C26.5648 3.98691 26.8251 3.72656 27.1431 3.72656ZM25.1009 18.7605V20.1642C25.1009 20.5397 25.0341 20.8831 24.9014 21.1912C24.7686 21.5 24.5403 21.7655 24.2191 21.9866C23.8979 22.209 23.4636 22.3804 22.9174 22.5008C22.3712 22.6211 21.6843 22.6813 20.8575 22.6813C20.0307 22.6813 19.3412 22.6211 18.7911 22.5008C18.2397 22.3804 17.8034 22.209 17.4822 21.9866C17.1604 21.7655 16.9327 21.5 16.7999 21.1912C16.6671 20.8831 16.6004 20.5404 16.6004 20.1642V18.7605C16.6004 18.0854 16.7404 17.5641 17.0204 17.1977C17.3003 16.8321 17.6477 16.6051 18.0604 16.5181C17.7576 16.3827 17.5463 16.1806 17.4272 15.9104C17.3075 15.6403 17.2474 15.2275 17.2474 14.8612V14.0219C17.2474 13.6648 17.3075 13.3462 17.4272 13.0676C17.5456 12.7876 17.7445 12.5482 18.0186 12.3506C18.2946 12.1537 18.6675 12.0007 19.1352 11.8954C19.6035 11.7894 20.1824 11.7357 20.8712 11.7357C21.5601 11.7357 22.137 11.7894 22.6008 11.8954C23.0639 12.0007 23.4322 12.1537 23.703 12.3506C23.9731 12.5482 24.1668 12.7876 24.2812 13.0676C24.3957 13.3462 24.4533 13.6661 24.4533 14.0219V14.8612C24.4533 15.2262 24.3944 15.6403 24.2747 15.9104C24.155 16.1806 23.9437 16.3827 23.6408 16.5181C24.0543 16.6051 24.4009 16.8321 24.6809 17.1977C24.9615 17.5641 25.1009 18.0861 25.1009 18.7605ZM19.8992 15.5199C19.8992 15.6697 19.947 15.8018 20.0438 15.9032C20.1399 16.0046 20.4716 16.055 20.8575 16.055C21.2526 16.055 21.5849 16.0033 21.6713 15.9032C21.7569 15.8031 21.8021 15.6743 21.8021 15.5199V14.6944C21.8021 14.5492 21.7576 14.4268 21.6713 14.3255C21.5836 14.2241 21.2526 14.173 20.8575 14.173C20.4716 14.173 20.1399 14.2241 20.0438 14.3255C19.947 14.4268 19.8992 14.5518 19.8992 14.6944V15.5199ZM19.5545 19.6141C19.5545 19.7652 19.6336 19.8973 19.7887 19.9974C19.9443 20.0982 20.3617 20.1498 20.8575 20.1498C21.3533 20.1498 21.7681 20.0982 21.9192 19.9974C22.0696 19.8973 22.1462 19.7685 22.1462 19.6141V18.7526C22.1462 18.608 22.0703 18.4851 21.9192 18.3837C21.7674 18.2829 21.3533 18.2319 20.8575 18.2319C20.3617 18.2319 19.9443 18.2829 19.7887 18.3837C19.6323 18.4851 19.5545 18.61 19.5545 18.7526V19.6141Z" fill="white"/>
</g>
<defs>
<clipPath id="clip0_10_117">
<rect width="33.4915" height="33.4915" fill="white" transform="translate(0.169434 0.338867)"/>
</clipPath>
</defs>
</svg>
