<svg width="37" height="37" viewBox="0 0 37 37" fill="none" xmlns="http://www.w3.org/2000/svg">
<path d="M14.2988 23.111C17.6618 26.474 18.1928 31.784 16.3048 36.917C17.5438 36.327 18.7238 35.56 19.7268 34.557C24.3288 29.955 24.3288 22.462 19.6678 17.801C15.0068 13.14 7.51376 13.081 2.91176 17.742C1.90876 18.745 1.14176 19.925 0.551758 21.164C5.68476 19.158 10.9948 19.748 14.2988 23.111Z" fill="#FF0000"/>
<path d="M16.3016 26.1898L11.2119 21.1001L9.45972 22.8523L14.5494 27.942L16.3016 26.1898Z" fill="#2683EA"/>
<path d="M12.2927 28.5389C10.9357 29.3649 7.15967 30.3089 7.15967 30.3089C7.15967 30.3089 8.04467 26.4739 8.92967 25.1759C9.81467 23.7009 11.1717 22.9339 12.2927 22.8749C13.4137 22.8159 14.7707 22.6979 14.5937 22.9339C14.7707 22.7569 14.6527 24.1139 14.6527 25.2349C14.5347 26.2969 13.7677 27.5949 12.2927 28.5389Z" fill="#E8AB2E"/>
<path d="M11.2899 27.3591C10.4639 28.0081 8.39893 29.0111 8.39893 29.0111C8.39893 29.0111 9.40193 26.9461 10.0509 26.1201C10.6999 25.2351 11.5259 24.6451 12.0569 24.4681C12.6469 24.2911 13.3549 24.0551 13.2369 24.1731C13.3549 24.0551 13.1189 24.7631 12.9419 25.3531C12.7649 25.8841 12.1749 26.6511 11.2899 27.3591Z" fill="#FF0000"/>
<path d="M34.8305 10.485C36.2465 7.004 36.6595 0.75 36.6595 0.75C36.6595 0.75 30.3465 1.163 26.9245 2.579C23.4435 3.995 15.1245 9.541 9.87354 21.931L12.6465 24.704L15.4195 27.477C27.9275 22.285 33.4145 13.966 34.8305 10.485Z" fill="#C1C1C1"/>
<path d="M34.1819 11.901C33.4739 10.78 32.0579 9.01 30.2289 7.181C28.3999 5.352 26.6299 3.877 25.5679 3.228C26.0989 2.933 26.5709 2.697 26.9839 2.579C30.3469 1.163 36.6599 0.75 36.6599 0.75C36.6599 0.75 36.2469 7.063 34.8309 10.485C34.6539 10.898 34.4179 11.37 34.1819 11.901Z" fill="#294862"/>
<path d="M34.1819 11.9009C33.4739 10.7799 32.0579 9.00994 30.2289 7.18094C28.3999 5.35194 26.6299 3.87694 25.5679 3.22794C26.0399 2.99194 26.4529 2.75594 26.8659 2.63794C28.1639 3.22794 29.8159 4.40794 31.4679 6.05994C33.0609 7.65294 34.2999 9.36394 34.8899 10.6619C34.5949 11.0159 34.4179 11.4289 34.1819 11.9009Z" fill="#FF0000"/>
<path d="M18.8295 18.5575C18.4608 18.1888 16.4062 19.6457 14.2404 21.8115C12.0746 23.9774 10.6177 26.032 10.9863 26.4006C11.355 26.7693 13.4096 25.3124 15.5754 23.1465C17.7412 20.9807 19.1981 18.9261 18.8295 18.5575Z" fill="#294862"/>
<path d="M25.5678 15.0869C27.3599 15.0869 28.8128 13.6341 28.8128 11.8419C28.8128 10.0498 27.3599 8.59692 25.5678 8.59692C23.7756 8.59692 22.3228 10.0498 22.3228 11.8419C22.3228 13.6341 23.7756 15.0869 25.5678 15.0869Z" fill="#E5AC2E"/>
<path d="M25.5678 14.32C26.9364 14.32 28.0458 13.2106 28.0458 11.842C28.0458 10.4735 26.9364 9.36401 25.5678 9.36401C24.1993 9.36401 23.0898 10.4735 23.0898 11.842C23.0898 13.2106 24.1993 14.32 25.5678 14.32Z" fill="#294862"/>
</svg>
