<svg width="36" height="36" viewBox="0 0 36 36" fill="none" xmlns="http://www.w3.org/2000/svg">
<g clip-path="url(#clip0_10_96)">
<path fill-rule="evenodd" clip-rule="evenodd" d="M16.1568 0C17.8822 1.11752 19.6824 2.11244 21.5445 2.97755C21.0287 3.63089 20.5975 4.34801 20.2613 5.11157C18.8519 4.41455 17.4825 3.63785 16.1597 2.78517C12.149 5.93439 7.5347 7.50012 2.49857 7.22486C2.11771 21.8818 7.5347 30.0153 16.2124 33.206C22.4204 30.8381 26.8941 26.0669 28.8423 18.7681H29.065C29.8058 18.7686 30.5441 18.6822 31.2652 18.5106C29.062 27.4048 23.7915 33.1053 16.2124 35.9911C5.75345 32.1404 -0.436979 22.6868 0.0229821 5.03165C5.52494 5.32763 10.9243 4.12004 16.1568 0.014799V0Z" fill="white"/>
<path fill-rule="evenodd" clip-rule="evenodd" d="M11.8066 15.7137H12.2461V14.734C12.2438 13.6454 12.6572 12.5979 13.4004 11.8097C13.7602 11.4209 14.1953 11.111 14.6786 10.8991C15.1619 10.6872 15.6831 10.5779 16.21 10.5779C16.7368 10.5779 17.258 10.6872 17.7413 10.8991C18.2246 11.111 18.6597 11.4209 19.0195 11.8097C19.7699 12.5946 20.1899 13.6428 20.1914 14.734V15.7137H20.6279C20.7996 15.7137 20.9643 15.7826 21.0858 15.9052C21.2072 16.0279 21.2754 16.1943 21.2754 16.3678V23.2789C21.2746 23.4521 21.2062 23.6181 21.0849 23.7406C20.9636 23.8631 20.7994 23.9322 20.6279 23.933H11.8066C11.6352 23.9322 11.4709 23.8631 11.3497 23.7406C11.2284 23.6181 11.16 23.4521 11.1592 23.2789V16.3678C11.1592 16.1943 11.2274 16.0279 11.3488 15.9052C11.4702 15.7826 11.6349 15.7137 11.8066 15.7137ZM13.4707 15.7137H18.9521V14.734C18.9569 13.9633 18.6661 13.2208 18.1406 12.6621C17.8939 12.3946 17.5953 12.1812 17.2634 12.0353C16.9315 11.8894 16.5734 11.8141 16.2114 11.8141C15.8495 11.8141 15.4914 11.8894 15.1595 12.0353C14.8276 12.1812 14.529 12.3946 14.2822 12.6621C13.7568 13.2208 13.4659 13.9633 13.4707 14.734V15.7137ZM15.6797 20.1267L14.9824 21.9766H17.4404L16.793 20.1001C17.0484 19.9667 17.2516 19.7498 17.3693 19.4847C17.487 19.2197 17.5124 18.9221 17.4411 18.6407C17.3699 18.3592 17.2063 18.1105 16.9771 17.935C16.7479 17.7596 16.4666 17.6678 16.1792 17.6747C15.8917 17.6816 15.615 17.7867 15.3943 17.9729C15.1736 18.1591 15.0218 18.4154 14.9639 18.7C14.9059 18.9845 14.9451 19.2805 15.0751 19.5396C15.2051 19.7988 15.4183 20.0057 15.6797 20.1267Z" fill="white"/>
<path fill-rule="evenodd" clip-rule="evenodd" d="M29.0713 2.0481C30.4417 2.0481 31.7813 2.45863 32.9207 3.22779C34.0601 3.99696 34.9482 5.09019 35.4726 6.36926C35.997 7.64833 36.1342 9.05578 35.8669 10.4136C35.5995 11.7715 34.9396 13.0187 33.9706 13.9977C33.0016 14.9767 31.7671 15.6433 30.423 15.9134C29.079 16.1835 27.6858 16.0449 26.4198 15.5151C25.1537 14.9853 24.0716 14.0881 23.3103 12.937C22.5489 11.7858 22.1426 10.4325 22.1426 9.04801C22.1426 7.19152 22.8726 5.41106 24.172 4.09832C25.4713 2.78558 27.2337 2.0481 29.0713 2.0481ZM27.4775 8.87931C27.6768 9.04801 27.8638 9.23101 28.0371 9.42687C28.5674 8.56783 29.1547 7.74608 29.7949 6.96728C31.5527 4.84214 30.7471 5.25356 33.1641 5.25356L32.8125 5.63833C31.9942 6.5759 31.2507 7.57747 30.5889 8.63364C29.7506 9.85724 28.9902 11.1335 28.3125 12.4547L28.1045 12.8632L27.9111 12.4488C27.5699 11.6956 27.1379 10.9877 26.625 10.3414C26.1623 9.75178 25.6107 9.23938 24.9902 8.82307C25.3037 7.77826 26.8037 8.31398 27.4746 8.88819L27.4775 8.87931Z" fill="#56B320"/>
</g>
<defs>
<clipPath id="clip0_10_96">
<rect width="36" height="36" fill="white"/>
</clipPath>
</defs>
</svg>
