<svg width="47" height="47" viewBox="0 0 47 47" fill="none" xmlns="http://www.w3.org/2000/svg">
<path fill-rule="evenodd" clip-rule="evenodd" d="M44.9266 36.4817V10.5176H2.07373V36.4817H44.9266Z" fill="white"/>
<path fill-rule="evenodd" clip-rule="evenodd" d="M44.9266 36.4817V10.5176H2.07373V36.4817H44.9266Z" fill="#33348E"/>
<path fill-rule="evenodd" clip-rule="evenodd" d="M28.4675 36.4817V27.4229H44.9266V19.5764H28.4675V10.5176H18.3017V19.5764H2.07373V27.4229H18.3017V36.4817H28.4675Z" fill="white"/>
<path d="M7.29246 10.5176L44.9266 33.321V36.4822H39.8008L2.07373 13.6225V10.5176H7.29246Z" fill="white"/>
<path d="M39.7082 10.5176L2.07373 33.321V36.4822H7.1998L44.9266 13.6225V10.5176H39.7082Z" fill="white"/>
<path fill-rule="evenodd" clip-rule="evenodd" d="M44.9266 20.9953H26.5998V10.5176H20.4182V20.9953H2.07373V26.0041H20.4182V36.4817H26.5998V26.0041H44.9266V20.9953Z" fill="#CC2229"/>
<path d="M2.09324 10.5176L16.9804 19.5764H13.6391L2.07373 12.5387V10.5176H2.09324ZM2.07373 36.4366V36.4822H5.33961L18.3017 28.5948V27.4229H16.8863L2.07373 36.4366ZM44.9266 36.4822V34.5896L33.1488 27.4229H29.8076L44.6957 36.4822H44.9266ZM41.394 10.5176L28.4675 18.3836V19.5764H29.8481L44.7352 10.5176H41.394Z" fill="#CC2229"/>
</svg>
