<svg width="69" height="19" viewBox="0 0 69 19" fill="none" xmlns="http://www.w3.org/2000/svg">
<path d="M5.71955 12.49C5.3497 12.7134 4.95783 12.8711 4.54394 12.9631C4.13886 13.0683 3.67654 13.1209 3.15698 13.1209C2.69907 13.1209 2.27637 13.0551 1.88891 12.9237C1.51024 12.7791 1.18002 12.5557 0.898221 12.2534C0.616426 11.9511 0.396274 11.5633 0.237764 11.0901C0.0792548 10.6038 0 10.0189 0 9.33543C0 8.62566 0.0792548 7.96847 0.237764 7.36385C0.40508 6.74609 0.65165 6.20719 0.977476 5.74716C1.31211 5.28712 1.7348 4.92566 2.24555 4.66279C2.75631 4.39991 3.36393 4.26847 4.06841 4.26847C4.64081 4.26847 5.13835 4.34076 5.56104 4.48535C5.98374 4.61678 6.33158 4.92566 6.60457 5.41199L6.23471 7.93561H4.43827C4.44707 7.71216 4.45588 7.515 4.46469 7.34413C4.47349 7.17326 4.4779 6.98268 4.4779 6.77238C4.4779 6.35177 4.44707 6.05604 4.38543 5.88517C4.32379 5.70115 4.22252 5.60915 4.08162 5.60915C3.83505 5.60915 3.6193 5.79316 3.43437 6.16119C3.24945 6.51607 3.09534 6.94982 2.97205 7.46243C2.85758 7.9619 2.76951 8.49422 2.70787 9.05941C2.65504 9.61145 2.62862 10.0846 2.62862 10.4789C2.62862 10.6235 2.63302 10.7747 2.64183 10.9324C2.65063 11.077 2.66824 11.215 2.69466 11.3464C2.72989 11.4779 2.77392 11.583 2.82675 11.6619C2.87959 11.7408 2.95444 11.7802 3.05131 11.7802C3.13937 11.7802 3.24064 11.7408 3.35512 11.6619C3.4696 11.583 3.57967 11.4647 3.68535 11.307C3.79102 11.1361 3.89229 10.9193 3.98916 10.6564C4.08602 10.3935 4.16088 10.0781 4.21371 9.71003H6.10262L5.71955 12.49Z" fill="white"/>
<path d="M7.69411 5.21483C8.14322 4.88623 8.60114 4.64964 9.06786 4.50506C9.54339 4.34734 10.0718 4.26847 10.653 4.26847C11.2165 4.26847 11.6833 4.33419 12.0531 4.46563C12.423 4.59707 12.718 4.78765 12.9381 5.03739C13.1583 5.28712 13.3124 5.58286 13.4005 5.9246C13.4885 6.26634 13.5325 6.65408 13.5325 7.08783C13.5325 7.33756 13.5193 7.60701 13.4929 7.89618C13.4753 8.18534 13.4533 8.4285 13.4269 8.62566L12.806 12.9631H10.6794L10.4416 11.7013H10.3624C10.0806 12.1614 9.75033 12.5162 9.37167 12.766C9.00182 13.0026 8.63196 13.1209 8.2621 13.1209C8.05076 13.1209 7.84381 13.0749 7.64127 12.9828C7.43874 12.8908 7.25821 12.7528 7.0997 12.5688C6.94119 12.3717 6.8135 12.1285 6.71664 11.8393C6.61977 11.537 6.57134 11.1756 6.57134 10.755C6.57134 10.0715 6.69462 9.53259 6.94119 9.13827C7.19657 8.73081 7.5268 8.4285 7.93188 8.23134C8.34576 8.02104 8.80808 7.8896 9.31883 7.83703C9.83839 7.78445 10.358 7.75817 10.8775 7.75817C10.8951 7.62673 10.9171 7.44271 10.9436 7.20612C10.97 6.95639 10.9832 6.73952 10.9832 6.5555C10.9832 6.31891 10.9392 6.10204 10.8511 5.90488C10.7718 5.69458 10.6001 5.58943 10.3359 5.58943C10.0277 5.58943 9.79877 5.72744 9.64906 6.00346C9.50817 6.26634 9.4157 6.58836 9.37167 6.96953H7.44314L7.69411 5.21483ZM10.7322 8.68481H10.4944C10.2391 8.68481 10.0189 8.73738 9.83399 8.84253C9.65787 8.93454 9.51257 9.05941 9.39809 9.21713C9.29242 9.37486 9.21316 9.5523 9.16033 9.74946C9.10749 9.94662 9.08107 10.1438 9.08107 10.3409C9.08107 10.6564 9.13391 10.893 9.23958 11.0507C9.35406 11.2084 9.48615 11.2873 9.63585 11.2873C9.82078 11.2873 10.0013 11.1887 10.1774 10.9916C10.3624 10.7944 10.4768 10.5315 10.5209 10.2029L10.7322 8.68481Z" fill="white"/>
<path d="M18.0865 6.96953C18.0953 6.90382 18.1041 6.8381 18.1129 6.77238C18.1217 6.70666 18.1261 6.63437 18.1261 6.5555C18.1261 6.31891 18.0953 6.10204 18.0337 5.90488C17.9808 5.69458 17.8707 5.58943 17.7034 5.58943C17.5537 5.58943 17.404 5.68801 17.2543 5.88517C17.1046 6.06918 17.0298 6.31891 17.0298 6.63437C17.0298 6.84467 17.065 7.01554 17.1354 7.14698C17.2147 7.26527 17.316 7.36385 17.4393 7.44271C17.5625 7.52158 17.699 7.5873 17.8487 7.63987C18.0072 7.69245 18.1614 7.74502 18.3111 7.7976C18.5224 7.87646 18.7205 7.97504 18.9055 8.09333C19.0992 8.19848 19.2709 8.34307 19.4206 8.52708C19.5703 8.7111 19.6892 8.94111 19.7773 9.21713C19.8653 9.48001 19.9094 9.80861 19.9094 10.2029C19.9094 10.755 19.8213 11.2216 19.6452 11.6027C19.4779 11.9708 19.2401 12.2731 18.9319 12.5097C18.6325 12.7331 18.2758 12.8908 17.8619 12.9828C17.4569 13.0749 17.021 13.1209 16.5542 13.1209C15.8409 13.1209 15.2509 13.042 14.7842 12.8843C14.3175 12.7265 13.9917 12.5754 13.8067 12.4308L14.0841 10.4592H15.8674C15.8586 10.5249 15.8542 10.5907 15.8542 10.6564C15.8542 10.709 15.8542 10.7681 15.8542 10.8338C15.8542 11.1361 15.8982 11.3793 15.9862 11.5633C16.0831 11.7342 16.246 11.8196 16.475 11.8196C16.7304 11.8196 16.9109 11.7145 17.0166 11.5042C17.131 11.2807 17.1883 11.077 17.1883 10.893C17.1883 10.709 17.1398 10.5512 17.043 10.4198C16.9549 10.2752 16.8404 10.1569 16.6995 10.0649C16.5586 9.95976 16.4001 9.87433 16.224 9.80861C16.0567 9.72974 15.8938 9.65745 15.7353 9.59173C15.6208 9.5523 15.4887 9.48658 15.339 9.39458C15.1981 9.30257 15.0616 9.17113 14.9295 9.00026C14.7974 8.82939 14.6873 8.61252 14.5993 8.34964C14.5112 8.07362 14.4672 7.73188 14.4672 7.32442C14.4672 6.74609 14.5597 6.26634 14.7446 5.88517C14.9383 5.49085 15.1849 5.1754 15.4843 4.93881C15.7925 4.70222 16.1359 4.53135 16.5146 4.4262C16.9021 4.32105 17.2895 4.26847 17.677 4.26847C18.1614 4.26847 18.6193 4.33419 19.0508 4.46563C19.4823 4.59707 19.8345 4.76794 20.1075 4.97824L19.8037 6.96953H18.0865Z" fill="white"/>
<path d="M23.0175 12.9631H20.3361L21.5381 4.48535H24.246L23.0175 12.9631ZM24.5894 1.90258C24.5894 2.20489 24.5454 2.46776 24.4573 2.69121C24.3781 2.91465 24.268 3.10524 24.1271 3.26297C23.995 3.42069 23.8409 3.53899 23.6648 3.61785C23.4887 3.69671 23.3081 3.73615 23.1232 3.73615C22.771 3.73615 22.476 3.61128 22.2382 3.36155C22.0004 3.11181 21.8815 2.7175 21.8815 2.1786C21.8815 1.88943 21.9212 1.63313 22.0004 1.40968C22.0797 1.17309 22.1854 0.982508 22.3174 0.837926C22.4583 0.680199 22.6169 0.561905 22.793 0.483042C22.9779 0.404178 23.1672 0.364746 23.361 0.364746C23.7044 0.364746 23.995 0.489613 24.2328 0.739347C24.4705 0.98908 24.5894 1.37682 24.5894 1.90258Z" fill="white"/>
<path d="M27.8781 5.74716C28.063 5.48428 28.2699 5.24112 28.4989 5.01767C28.7014 4.83366 28.9392 4.66279 29.2122 4.50506C29.4852 4.34734 29.789 4.26847 30.1236 4.26847C30.5815 4.26847 30.9602 4.44591 31.2596 4.8008C31.559 5.14254 31.7087 5.61572 31.7087 6.22034C31.7087 6.3912 31.6955 6.60151 31.6691 6.85124C31.6427 7.08783 31.6119 7.33756 31.5766 7.60044C31.5414 7.86332 31.5018 8.13277 31.4577 8.40879C31.4225 8.67166 31.3917 8.90825 31.3653 9.11855L30.8105 12.9631H28.129L28.8555 7.81731C28.8732 7.64644 28.8952 7.47557 28.9216 7.3047C28.948 7.12069 28.9612 6.95639 28.9612 6.81181C28.9612 6.61465 28.926 6.45692 28.8555 6.33863C28.7939 6.20719 28.697 6.14147 28.5649 6.14147C28.4064 6.14147 28.2523 6.22691 28.1026 6.39778C27.9617 6.56865 27.8517 6.71323 27.7724 6.83152L26.9006 12.9631H24.2059L25.408 4.48535H27.5611L27.7988 5.74716H27.8781Z" fill="white"/>
<path d="M37.4904 4.48535H39.6435L39.8416 5.96403H39.9341C40.1366 5.49085 40.3964 5.08996 40.7134 4.76137C41.0305 4.43277 41.4488 4.26847 41.9683 4.26847C42.0035 4.26847 42.0564 4.27504 42.1268 4.28819C42.2061 4.28819 42.2897 4.3079 42.3778 4.34734C42.4747 4.37362 42.5715 4.41963 42.6684 4.48535C42.7741 4.53792 42.8753 4.61678 42.9722 4.72193L42.391 8.78339H40.9512C40.9336 7.96847 40.8852 7.40328 40.8059 7.08783C40.7267 6.75923 40.599 6.59493 40.4228 6.59493C40.3348 6.59493 40.2379 6.62779 40.1322 6.69351C40.0354 6.74609 39.9341 6.87096 39.8284 7.06811L38.983 12.9631H36.2884L37.4904 4.48535Z" fill="white"/>
<path d="M43.7568 5.21483C44.2059 4.88623 44.6638 4.64964 45.1306 4.50506C45.6061 4.34734 46.1344 4.26847 46.7157 4.26847C47.2792 4.26847 47.746 4.33419 48.1158 4.46563C48.4857 4.59707 48.7807 4.78765 49.0008 5.03739C49.221 5.28712 49.3751 5.58286 49.4632 5.9246C49.5512 6.26634 49.5952 6.65408 49.5952 7.08783C49.5952 7.33756 49.582 7.60701 49.5556 7.89618C49.538 8.18534 49.516 8.4285 49.4896 8.62566L48.8687 12.9631H46.7421L46.5043 11.7013H46.4251C46.1433 12.1614 45.813 12.5162 45.4344 12.766C45.0645 13.0026 44.6947 13.1209 44.3248 13.1209C44.1135 13.1209 43.9065 13.0749 43.704 12.9828C43.5014 12.8908 43.3209 12.7528 43.1624 12.5688C43.0039 12.3717 42.8762 12.1285 42.7793 11.8393C42.6825 11.537 42.634 11.1756 42.634 10.755C42.634 10.0715 42.7573 9.53259 43.0039 9.13827C43.2593 8.73081 43.5895 8.4285 43.9946 8.23134C44.4085 8.02104 44.8708 7.8896 45.3815 7.83703C45.9011 7.78445 46.4206 7.75817 46.9402 7.75817C46.9578 7.62673 46.9798 7.44271 47.0063 7.20612C47.0327 6.95639 47.0459 6.73952 47.0459 6.5555C47.0459 6.31891 47.0019 6.10204 46.9138 5.90488C46.8345 5.69458 46.6628 5.58943 46.3986 5.58943C46.0904 5.58943 45.8615 5.72744 45.7118 6.00346C45.5709 6.26634 45.4784 6.58836 45.4344 6.96953H43.5058L43.7568 5.21483ZM46.7949 8.68481H46.5571C46.3018 8.68481 46.0816 8.73738 45.8967 8.84253C45.7206 8.93454 45.5753 9.05941 45.4608 9.21713C45.3551 9.37486 45.2759 9.5523 45.223 9.74946C45.1702 9.94662 45.1438 10.1438 45.1438 10.3409C45.1438 10.6564 45.1966 10.893 45.3023 11.0507C45.4168 11.2084 45.5488 11.2873 45.6986 11.2873C45.8835 11.2873 46.064 11.1887 46.2401 10.9916C46.4251 10.7944 46.5395 10.5315 46.5836 10.2029L46.7949 8.68481Z" fill="white"/>
<path d="M50.4952 4.48535C50.821 4.38019 51.1072 4.2619 51.3538 4.13046C51.6004 3.99902 51.8249 3.83472 52.0275 3.63757C52.2388 3.44041 52.437 3.19725 52.6219 2.90808C52.8156 2.61892 53.0226 2.26403 53.2427 1.84343H54.6033L54.2202 4.48535H55.2505L55.0788 5.8063H54.0353L53.4937 9.65088C53.4497 9.95319 53.4144 10.2226 53.388 10.4592C53.3616 10.6958 53.3484 10.8798 53.3484 11.0113C53.3484 11.2741 53.41 11.4384 53.5333 11.5042C53.6654 11.5699 53.9076 11.6027 54.2598 11.6027L54.0617 12.9631C54 12.9894 53.9032 13.0091 53.7711 13.0223C53.6478 13.0354 53.5069 13.0486 53.3484 13.0617C53.1987 13.088 53.0402 13.1011 52.8729 13.1011C52.7144 13.1143 52.5735 13.1209 52.4502 13.1209C52.23 13.1209 52.0143 13.0946 51.8029 13.042C51.5916 13.0026 51.4022 12.9171 51.2349 12.7857C51.0676 12.6411 50.9311 12.4374 50.8254 12.1745C50.7286 11.9116 50.6801 11.5567 50.6801 11.1098C50.6801 10.9521 50.6846 10.755 50.6934 10.5184C50.711 10.2818 50.7418 10.0189 50.7858 9.72974L51.3406 5.8063H50.3103L50.4952 4.48535Z" fill="white"/>
<path d="M57.8238 9.00026C57.7886 9.28942 57.7622 9.56545 57.7446 9.82832C57.7357 10.0912 57.7313 10.3278 57.7313 10.5381C57.7313 10.6564 57.7357 10.7878 57.7446 10.9324C57.7534 11.077 57.771 11.215 57.7974 11.3464C57.8326 11.4647 57.8766 11.5699 57.9295 11.6619C57.9911 11.7408 58.0748 11.7802 58.1805 11.7802C58.2597 11.7802 58.3478 11.7408 58.4446 11.6619C58.5503 11.583 58.6516 11.4713 58.7484 11.3267C58.8541 11.1821 58.951 11.0047 59.039 10.7944C59.1359 10.5841 59.2108 10.3475 59.2636 10.0846H61.4299L61.0865 12.1942C60.9103 12.3651 60.7078 12.5097 60.4788 12.628C60.2499 12.7463 60.0077 12.8448 59.7523 12.9237C59.497 12.9894 59.2372 13.0354 58.973 13.0617C58.7088 13.1011 58.4578 13.1209 58.2201 13.1209C57.7798 13.1209 57.3703 13.0617 56.9916 12.9434C56.613 12.8251 56.2827 12.6214 56.0009 12.3322C55.7192 12.0431 55.4946 11.6619 55.3273 11.1887C55.1688 10.7024 55.0895 10.1043 55.0895 9.39458C55.0895 8.75053 55.1556 8.11962 55.2877 7.50186C55.4286 6.8841 55.6575 6.33863 55.9745 5.86545C56.3004 5.37913 56.7319 4.99138 57.269 4.70222C57.815 4.41305 58.4931 4.26847 59.3032 4.26847C60.1838 4.26847 60.8443 4.4722 61.2846 4.87966C61.7337 5.28712 61.9583 5.9246 61.9583 6.79209C61.9583 7.14698 61.923 7.53472 61.8526 7.95532C61.7821 8.36278 61.6765 8.7111 61.5356 9.00026H57.8238ZM59.5806 6.65408C59.5806 6.24662 59.5366 5.9706 59.4485 5.82602C59.3605 5.68144 59.2548 5.60915 59.1315 5.60915C58.9906 5.60915 58.8585 5.68144 58.7352 5.82602C58.6208 5.95746 58.5151 6.14147 58.4182 6.37806C58.3214 6.60151 58.2333 6.86438 58.154 7.16669C58.0748 7.45586 58.0087 7.76474 57.9559 8.09333H59.4617C59.4794 7.93561 59.497 7.77131 59.5146 7.60044C59.5322 7.45586 59.5454 7.29813 59.5542 7.12726C59.5718 6.95639 59.5806 6.79866 59.5806 6.65408Z" fill="white"/>
<g clip-path="url(#clip0_45_905)">
<rect x="29.1567" y="3.64453" width="9.47597" height="9.47597" rx="4.73799" fill="#33348E"/>
<path fill-rule="evenodd" clip-rule="evenodd" d="M42.6314 13.7038V3.20215H25.2988V13.7038H42.6314Z" fill="white"/>
<path fill-rule="evenodd" clip-rule="evenodd" d="M42.6314 13.7038V3.20215H25.2988V13.7038H42.6314Z" fill="#33348E"/>
<path fill-rule="evenodd" clip-rule="evenodd" d="M35.9742 13.7038V10.0398H42.6314V6.86614H35.9742V3.20215H31.8625V6.86614H25.2988V10.0398H31.8625V13.7038H35.9742Z" fill="white"/>
<path d="M27.4096 3.20215L42.6314 12.4253V13.704H40.5582L25.2988 4.458V3.20215H27.4096Z" fill="white"/>
<path d="M40.5207 3.20215L25.2988 12.4253V13.704H27.3722L42.6314 4.458V3.20215H40.5207Z" fill="white"/>
<path fill-rule="evenodd" clip-rule="evenodd" d="M42.6314 7.44002H35.2188V3.20215H32.7185V7.44002H25.2988V9.46591H32.7185V13.7038H35.2188V9.46591H42.6314V7.44002Z" fill="#CC2229"/>
<path d="M25.3067 3.20215L31.3281 6.86614H29.9767L25.2988 4.01962V3.20215H25.3067ZM25.2988 13.6855V13.704H26.6198L31.8625 10.5138V10.0398H31.29L25.2988 13.6855ZM42.6314 13.704V12.9385L37.8677 10.0398H36.5163L42.538 13.704H42.6314ZM41.2026 3.20215L35.9742 6.38368V6.86614H36.5326L42.554 3.20215H41.2026Z" fill="#CC2229"/>
</g>
<rect x="29.1567" y="3.64453" width="9.47597" height="9.47597" rx="4.73799" stroke="white" stroke-width="0.728921"/>
<defs>
<clipPath id="clip0_45_905">
<rect x="29.1567" y="3.64453" width="9.47597" height="9.47597" rx="4.73799" fill="white"/>
</clipPath>
</defs>
</svg>
